<svg xmlns="http://www.w3.org/2000/svg" viewBox="0 0 102.05 102.5"><defs><style>.cls-1{fill:#00524b;}</style></defs><title>12-ico</title><g id="Camada_2" data-name="Camada 2"><g id="Camada_1-2" data-name="Camada 1"><path class="cls-1" d="M36,66.51V42.64l-5.07,2.14a2,2,0,0,1-3-1.44l-.49-1.4a2.29,2.29,0,0,1,1.39-3.07l9.13-4.07a7.25,7.25,0,0,1,3.57-.65c1.39,0,2.19.84,2.19,2.39v30a2.18,2.18,0,0,1-2.43,2.38H38.39A2.14,2.14,0,0,1,36,66.51"/><path class="cls-1" d="M47.56,66.7l-.1-.64A3.14,3.14,0,0,1,48.61,63l12-10.87c2.68-2.33,4.66-4.56,4.66-7.43S62.94,40,59.82,40c-3,0-4.41,1.25-5.06,2.68s-1.14,2.09-2.58,2.09H49.45c-1.59,0-2.58-.94-2.23-2.49.94-4.36,4.56-8.63,12.75-8.63,7.6,0,12.75,4.32,12.75,11.22,0,5-3.12,8.73-6.45,11.56l-7.49,6.35,0,.2c1.94-.2,6.8-.3,7.2-.3h5.8a2.19,2.19,0,0,1,2.39,2.43v1.44a2.15,2.15,0,0,1-2.39,2.38H50.15a2.39,2.39,0,0,1-2.58-2.19"/><path class="cls-1" d="M51,12.77a.73.73,0,0,1-.73-.73V8.52a.73.73,0,0,1,1.46,0V12a.73.73,0,0,1-.73.73"/><path class="cls-1" d="M31.44,18a.73.73,0,0,1-.63-.37L29,14.59a.73.73,0,1,1,1.26-.72l1.76,3.06a.72.72,0,0,1-.27,1,.71.71,0,0,1-.36.1"/><path class="cls-1" d="M17.08,32.35a.71.71,0,0,1-.36-.1l-3.05-1.76a.73.73,0,1,1,.72-1.26L17.44,31a.73.73,0,0,1-.36,1.36"/><path class="cls-1" d="M11.81,51.95H8.29a.73.73,0,0,1,0-1.46h3.52a.73.73,0,0,1,0,1.46"/><path class="cls-1" d="M29.63,89A.73.73,0,0,1,29,87.88l1.76-3.05a.73.73,0,0,1,1.26.72L30.26,88.6a.73.73,0,0,1-.63.37"/><path class="cls-1" d="M51,94.71a.73.73,0,0,1-.73-.73V90.46a.73.73,0,1,1,1.46,0V94a.73.73,0,0,1-.73.73"/><path class="cls-1" d="M72.35,89a.73.73,0,0,1-.63-.37L70,85.58a.73.73,0,0,1,1.26-.72L73,87.91A.73.73,0,0,1,72.35,89"/><path class="cls-1" d="M93.75,52H90.22a.73.73,0,1,1,0-1.46h3.53a.73.73,0,0,1,0,1.46"/><path class="cls-1" d="M85,32.4A.73.73,0,0,1,84.62,31l3.06-1.76a.73.73,0,1,1,.72,1.26L85.34,32.3a.71.71,0,0,1-.36.1"/><path class="cls-1" d="M70.64,18a.71.71,0,0,1-.36-.1.72.72,0,0,1-.27-1l1.76-3.05a.73.73,0,0,1,1.26.72l-1.76,3.05a.73.73,0,0,1-.63.37"/><path class="cls-1" d="M14,73.32A.73.73,0,0,1,13.63,72l3.05-1.76a.73.73,0,1,1,.72,1.26l-3,1.76a.73.73,0,0,1-.36.1"/><path class="cls-1" d="M88,73.37a.72.72,0,0,1-.36-.1l-3-1.76a.73.73,0,1,1,.72-1.26L88.37,72A.73.73,0,0,1,88,73.37"/><path class="cls-1" d="M51.18,102.5A51.25,51.25,0,1,1,71.07,4,50.94,50.94,0,0,1,88.63,16.18a2.56,2.56,0,0,1-3.74,3.5,46,46,0,1,0,12,37.95,2.61,2.61,0,0,1,2.9-2.19,2.57,2.57,0,0,1,2.19,2.9A51.33,51.33,0,0,1,51.18,102.5"/><path class="cls-1" d="M93.36,24.31H76.76a2.56,2.56,0,0,1,0-5.13H88.23V8.66a2.56,2.56,0,0,1,5.13,0Z"/></g></g></svg>