<?xml version="1.0" encoding="UTF-8" standalone="no"?>
<!-- Generator: Adobe Illustrator 19.0.0, SVG Export Plug-In . SVG Version: 6.00 Build 0)  -->

<svg
   xmlns:dc="http://purl.org/dc/elements/1.1/"
   xmlns:cc="http://creativecommons.org/ns#"
   xmlns:rdf="http://www.w3.org/1999/02/22-rdf-syntax-ns#"
   xmlns:svg="http://www.w3.org/2000/svg"
   xmlns="http://www.w3.org/2000/svg"
   xmlns:sodipodi="http://sodipodi.sourceforge.net/DTD/sodipodi-0.dtd"
   xmlns:inkscape="http://www.inkscape.org/namespaces/inkscape"
   version="1.1"
   id="Layer_1"
   x="0px"
   y="0px"
   viewBox="0 0 420 420"
   style="enable-background:new 0 0 420 420;"
   xml:space="preserve"
   inkscape:version="0.91 r13725"
   sodipodi:docname="icon-suave.svg"><metadata
     id="metadata4347"><rdf:RDF><cc:Work
         rdf:about=""><dc:format>image/svg+xml</dc:format><dc:type
           rdf:resource="http://purl.org/dc/dcmitype/StillImage" /></cc:Work></rdf:RDF></metadata><defs
     id="defs4345"><filter
       inkscape:collect="always"
       style="color-interpolation-filters:sRGB"
       id="filter4889"
       x="-0.011999893"
       width="1.0239998"
       y="-0.012000107"
       height="1.0240002"><feGaussianBlur
         inkscape:collect="always"
         stdDeviation="0.20488634"
         id="feGaussianBlur4891" /></filter></defs><sodipodi:namedview
     pagecolor="#ffffff"
     bordercolor="#666666"
     borderopacity="1"
     objecttolerance="10"
     gridtolerance="10"
     guidetolerance="10"
     inkscape:pageopacity="0"
     inkscape:pageshadow="2"
     inkscape:window-width="910"
     inkscape:window-height="480"
     id="namedview4343"
     showgrid="false"
     inkscape:zoom="0.56190476"
     inkscape:cx="348.81356"
     inkscape:cy="210"
     inkscape:window-x="0"
     inkscape:window-y="31"
     inkscape:window-maximized="0"
     inkscape:current-layer="XMLID_291_" /><g
     id="XMLID_291_"><polygon
       id="XMLID_292_"
       style="fill:#00524c;fill-opacity:1"
       points="80,0 100,300 100,420 320,420 320,300 340,0  " /><g
       id="XMLID_293_"
       style="fill:#c4d600;fill-opacity:1"><path
         id="XMLID_294_"
         style="fill:#c4d600;fill-opacity:1"
         d="M210,205c-24.813,0-45-20.186-45-45s20.187-45,45-45c24.814,0,45,20.186,45,45    S234.814,205,210,205z" /></g><g
       id="XMLID_296_"
       style="fill:#c4d600;fill-opacity:1"><rect
         id="XMLID_297_"
         x="270"
         y="145"
         style="fill:#c4d600;fill-opacity:1"
         width="30"
         height="30" /></g><g
       id="XMLID_298_"
       style="fill:#c4d600;fill-opacity:1"><rect
         id="XMLID_299_"
         x="232.495"
         y="80.044"
         transform="matrix(-0.866 -0.5 0.5 -0.866 414.3074 301.1033)"
         style="fill:#c4d600;fill-opacity:1"
         width="29.999"
         height="29.999" /></g><g
       id="XMLID_300_"
       style="fill:#c4d600;fill-opacity:1"><rect
         id="XMLID_301_"
         x="157.501"
         y="80.043"
         transform="matrix(-0.5 -0.866 0.866 -0.5 176.4438 291.9535)"
         style="fill:#c4d600;fill-opacity:1"
         width="29.999"
         height="29.999" /></g><g
       id="XMLID_302_"
       style="fill:#c4d600;fill-opacity:1"><rect
         id="XMLID_303_"
         x="157.496"
         y="209.947"
         transform="matrix(-0.866 -0.5 0.5 -0.866 209.4048 506.0046)"
         style="fill:#c4d600;fill-opacity:1"
         width="29.999"
         height="29.998" /></g><g
       id="XMLID_304_"
       style="filter:url(#filter4889);fill:#c4d600;fill-opacity:1"><rect
         id="XMLID_305_"
         x="232.518"
         y="209.949"
         transform="matrix(-0.5 -0.866 0.866 -0.5 176.4675 551.7798)"
         style="fill:#c4d600;fill-opacity:1"
         width="29.997"
         height="29.999" /></g><polygon
       id="XMLID_306_"
       style="fill:#00524c;fill-opacity:1"
       points="130,420 130,0 80,0 100,300 100,420  " /><polygon
       id="XMLID_307_"
       style="fill:#00524c;fill-opacity:0.47058824"
       points="290,0 290,420 320,420 320,300 340,0  " /><rect
       id="XMLID_308_"
       x="290"
       y="145"
       style="fill:#c4d600;fill-opacity:1"
       width="10"
       height="30" /><g
       id="XMLID_309_"
       style="fill:#c4d600;fill-opacity:1"><rect
         id="XMLID_310_"
         x="119.999"
         y="145"
         style="fill:#c4d600;fill-opacity:1"
         width="29.999"
         height="30" /></g><rect
       id="XMLID_311_"
       x="119.999"
       y="145"
       style="fill:#c4d600;fill-opacity:1"
       width="10"
       height="30" /><path
       id="XMLID_312_"
       style="fill:#c4d600;fill-opacity:1"
       d="M241.616,345c-5.628-11.814-17.683-20-31.616-20s-25.988,8.186-31.616,20H100v30   h220v-30H241.616z" /><rect
       id="XMLID_313_"
       x="290"
       y="345"
       style="fill:#c4d600;fill-opacity:1"
       width="30"
       height="30" /><rect
       id="XMLID_314_"
       x="100"
       y="345"
       style="fill:#c4d600;fill-opacity:1"
       width="30"
       height="30" /></g><g
     id="g4313" /><g
     id="g4315" /><g
     id="g4317" /><g
     id="g4319" /><g
     id="g4321" /><g
     id="g4323" /><g
     id="g4325" /><g
     id="g4327" /><g
     id="g4329" /><g
     id="g4331" /><g
     id="g4333" /><g
     id="g4335" /><g
     id="g4337" /><g
     id="g4339" /><g
     id="g4341" /></svg>