<svg xmlns="http://www.w3.org/2000/svg" viewBox="0 0 124.72 91.55"><defs><style>.cls-1{fill:#00524b;}</style></defs><title>om3-ico</title><g id="Camada_2" data-name="Camada 2"><g id="Camada_1-2" data-name="Camada 1"><path class="cls-1" d="M71.51,67.89a25.71,25.71,0,0,1-3.09,5.59,26.31,26.31,0,0,1-3.33,4A24.34,24.34,0,0,1,62,80.06a23.81,23.81,0,0,1-5.19,3.05,27.28,27.28,0,0,1-11.93,2.57A28.64,28.64,0,0,1,21.58,73.48a31.7,31.7,0,0,1-3.05-5.59h-1.7a11.05,11.05,0,0,1-4.56-1A33.15,33.15,0,0,0,15,73.4,34.23,34.23,0,0,0,44.8,91.32a33.67,33.67,0,0,0,17.12-4.48,33.12,33.12,0,0,0,5.19-3.65c.67-.55,1.31-1.11,1.94-1.74a35.17,35.17,0,0,0,6-8,38.51,38.51,0,0,0,2.42-5.59Zm2.22-29.17a160.62,160.62,0,0,0-8-14.35c-1.11-1.78-2.22-3.53-3.33-5.19-5.27-8-10.23-14.47-12.13-16.92a6.33,6.33,0,0,0-9.67,0C37.11,6.51,24,23.27,16.39,38.77c-1,2-1.94,4-2.74,6a12,12,0,0,1,3.17-.44H20c.79-1.82,1.74-3.73,2.73-5.63C28.87,27,38.34,13.92,45,5.71a.49.49,0,0,1,.4-.2.64.64,0,0,1,.44.2c3.84,4.91,8.64,11.57,13.16,18.59,1.15,1.74,2.26,3.53,3.33,5.31,1.86,3.05,3.61,6.14,5.15,9.11,1,1.94,1.9,3.8,2.69,5.63h6.06c-.71-1.82-1.54-3.73-2.46-5.63"/><path class="cls-1" d="M107.77,38.73c-7.45-15.34-20-31.9-23.38-36.22a6.36,6.36,0,0,0-9.67-.08c-1.94,2.46-7,8.84-12.36,16.76-1.11,1.62-2.26,3.37-3.41,5.11,1.15,1.74,2.26,3.53,3.33,5.31,1.11-1.74,2.22-3.49,3.41-5.23,4.6-7,9.55-13.55,13.43-18.43a.46.46,0,0,1,.44-.2A.49.49,0,0,1,80,6c6.38,8.2,15.5,21.12,21.52,32.77,1,1.9,1.94,3.8,2.74,5.63h3.33a11.25,11.25,0,0,1,2.85.36c-.75-1.94-1.63-4-2.62-6m-.24,29.17h-1.78a26.09,26.09,0,0,1-3,5.59,26.84,26.84,0,0,1-3.49,4.2A28.59,28.59,0,0,1,79,85.93a27.85,27.85,0,0,1-11.89-2.73A23,23,0,0,1,62,80.06a23.81,23.81,0,0,1-5.19,3.05,31.5,31.5,0,0,0,5.15,3.72,34,34,0,0,0,41.3-5.19,33.64,33.64,0,0,0,6.22-8.24A36.35,36.35,0,0,0,112.05,67a11.49,11.49,0,0,1-4.52.91"/><path class="cls-1" d="M2.82,50.28,3.72,49a.46.46,0,0,1,.4-.21H5.49a.42.42,0,0,1,.39.21l.92,1.25c.16.22.07.39-.21.39H6.07a.5.5,0,0,1-.41-.16l-.86-.84L4,50.52a.47.47,0,0,1-.4.16H3c-.26,0-.35-.17-.2-.39M7.55,56a2.74,2.74,0,1,0-2.74,2.89A2.75,2.75,0,0,0,7.55,56M0,56a4.65,4.65,0,0,1,4.81-4.67,4.68,4.68,0,1,1,0,9.35A4.65,4.65,0,0,1,0,56"/><path class="cls-1" d="M10.27,59.84,11,52a.58.58,0,0,1,.65-.59h.93a.71.71,0,0,1,.72.49l2.31,5.64,2.32-5.64a.7.7,0,0,1,.71-.49h.95a.59.59,0,0,1,.65.59L21,59.84a.54.54,0,0,1-.6.66h-.79a.59.59,0,0,1-.66-.59L18.49,55l-2,4.95a.7.7,0,0,1-.71.49h-.35a.7.7,0,0,1-.71-.49l-2-4.95-.43,4.95a.59.59,0,0,1-.65.59h-.79a.54.54,0,0,1-.59-.66"/><path class="cls-1" d="M24.22,53.17v2h2.93a.56.56,0,0,1,.62.62v.35a.57.57,0,0,1-.62.63H24.22v1.94h3.46a.56.56,0,0,1,.62.62v.49a.56.56,0,0,1-.62.62H22.8a.57.57,0,0,1-.63-.62V52.06a.57.57,0,0,1,.63-.62h4.88a.56.56,0,0,1,.62.62v.49a.56.56,0,0,1-.62.62Z"/><path class="cls-1" d="M28.75,56a4.72,4.72,0,0,1,4.88-4.69,5.22,5.22,0,0,1,2.74.7.55.55,0,0,1,.16.87l-.33.42a.61.61,0,0,1-.87.18,3.35,3.35,0,0,0-1.71-.38,2.89,2.89,0,0,0,.09,5.77,3.5,3.5,0,0,0,1.58-.36v-1.4H33.73a.57.57,0,0,1-.63-.62v-.29a.57.57,0,0,1,.63-.62H36.6a.57.57,0,0,1,.63.62V58.8a.9.9,0,0,1-.4.79,5.24,5.24,0,0,1-3.15,1A4.7,4.7,0,0,1,28.75,56"/><path class="cls-1" d="M42.94,57.2l-1.32-3.65L40.26,57.2ZM37.4,59.79l3-7.86a.71.71,0,0,1,.72-.49h.92a.72.72,0,0,1,.73.49l3.07,7.86c.16.43,0,.71-.49.71h-.84a.71.71,0,0,1-.73-.49l-.46-1.19H39.86L39.42,60a.71.71,0,0,1-.71.5h-.82c-.46,0-.65-.29-.49-.71"/><path class="cls-1" d="M53.94,57.51A1.57,1.57,0,0,0,52.26,56a1.59,1.59,0,0,0-1.72,1.5,1.72,1.72,0,0,0,3.41,0m-5.49-1.39c0-2.64,1.34-4.83,4.2-4.83a4.35,4.35,0,0,1,2.46.7.54.54,0,0,1,.07.88l-.23.26a.65.65,0,0,1-.88.12,2.6,2.6,0,0,0-1.3-.31c-1.44,0-2.37,1-2.37,2.71a2.93,2.93,0,0,1,2.36-1.14,3,3,0,0,1,3.17,3c0,1.81-1.4,3.13-3.53,3.13-2.5,0-3.94-1.81-3.94-4.52"/><path class="cls-1" d="M61.6,53.17v2h2.93a.56.56,0,0,1,.62.62v.35a.57.57,0,0,1-.62.63H61.6v1.94h3.46a.56.56,0,0,1,.62.62v.49a.56.56,0,0,1-.62.62H60.17a.57.57,0,0,1-.63-.62V52.06a.57.57,0,0,1,.63-.62h4.88a.56.56,0,0,1,.62.62v.49a.56.56,0,0,1-.62.62Z"/><path class="cls-1" d="M71.71,50.28,72.6,49a.46.46,0,0,1,.4-.21h1.38a.42.42,0,0,1,.39.21l.92,1.25c.16.22.07.39-.21.39H75a.5.5,0,0,1-.41-.16l-.86-.84-.85.84a.47.47,0,0,1-.4.16H71.9c-.26,0-.35-.17-.2-.39M76.43,56a2.74,2.74,0,1,0-2.74,2.89A2.75,2.75,0,0,0,76.43,56m-7.55,0a4.81,4.81,0,1,1,4.81,4.68A4.65,4.65,0,0,1,68.88,56"/><path class="cls-1" d="M79.16,59.84,79.88,52a.59.59,0,0,1,.65-.59h.93a.72.72,0,0,1,.73.49l2.3,5.64,2.32-5.64a.7.7,0,0,1,.71-.49h.95a.59.59,0,0,1,.65.59l.73,7.81a.54.54,0,0,1-.6.66h-.79a.59.59,0,0,1-.66-.59L87.38,55l-2,4.95a.7.7,0,0,1-.71.49h-.35a.7.7,0,0,1-.71-.49l-2-4.95-.43,4.95a.59.59,0,0,1-.65.59h-.79a.53.53,0,0,1-.59-.66"/><path class="cls-1" d="M93.1,53.17v2H96a.56.56,0,0,1,.62.62v.35a.57.57,0,0,1-.62.63H93.1v1.94h3.46a.56.56,0,0,1,.62.62v.49a.56.56,0,0,1-.62.62H91.68a.57.57,0,0,1-.63-.62V52.06a.57.57,0,0,1,.63-.62h4.88a.56.56,0,0,1,.62.62v.49a.56.56,0,0,1-.62.62Z"/><path class="cls-1" d="M97.63,56a4.72,4.72,0,0,1,4.88-4.69,5.22,5.22,0,0,1,2.74.7.55.55,0,0,1,.16.87l-.33.42a.61.61,0,0,1-.86.18,3.36,3.36,0,0,0-1.71-.38,2.89,2.89,0,0,0,.09,5.77,3.49,3.49,0,0,0,1.58-.36v-1.4h-1.57a.57.57,0,0,1-.63-.62v-.29a.57.57,0,0,1,.63-.62h2.86a.57.57,0,0,1,.63.62V58.8a.9.9,0,0,1-.4.79,5.23,5.23,0,0,1-3.15,1A4.71,4.71,0,0,1,97.63,56"/><path class="cls-1" d="M111.83,57.2l-1.32-3.65-1.36,3.65Zm-5.54,2.59,3-7.86a.71.71,0,0,1,.72-.49H111a.72.72,0,0,1,.72.49l3.07,7.86c.16.43,0,.71-.49.71h-.84a.71.71,0,0,1-.73-.49l-.46-1.19h-3.49L108.3,60a.71.71,0,0,1-.71.5h-.82c-.47,0-.65-.29-.49-.71"/><path class="cls-1" d="M119.24,54.43a1.57,1.57,0,0,0,1.68,1.5,1.52,1.52,0,1,0,0-3,1.55,1.55,0,0,0-1.67,1.5m5.49,1.39c0,2.64-1.35,4.83-4.2,4.83a4.36,4.36,0,0,1-2.46-.7.53.53,0,0,1-.06-.88l.23-.26a.64.64,0,0,1,.87-.12,2.63,2.63,0,0,0,1.31.31c1.44,0,2.37-1,2.37-2.71a2.94,2.94,0,0,1-2.37,1.14,3,3,0,0,1-3.18-3c0-1.81,1.41-3.13,3.55-3.13,2.5,0,3.94,1.81,3.94,4.52"/></g></g></svg>