<svg xmlns="http://www.w3.org/2000/svg" viewBox="0 0 102.05 102.05"><defs><style>.cls-1{fill:#00524b;}</style></defs><title>6h-ico</title><g id="Camada_2" data-name="Camada 2"><g id="Camada_1-2" data-name="Camada 1"><path class="cls-1" d="M14.9,79l-4.23,3.28a51.76,51.76,0,0,0,5.71,6.23L20,84.55A46.09,46.09,0,0,1,14.9,79"/><path class="cls-1" d="M9.12,69.23l-4.9,2.13a50.62,50.62,0,0,0,4,7.44l4.48-2.91a45.61,45.61,0,0,1-3.58-6.66"/><path class="cls-1" d="M5.94,58.36l-5.28.85a50.73,50.73,0,0,0,2,8.21L7.76,65.7a45,45,0,0,1-1.82-7.34"/><path class="cls-1" d="M30.46,97.73a51.15,51.15,0,0,0,8,2.75l1.31-5.18a45.54,45.54,0,0,1-7.16-2.46Z"/><path class="cls-1" d="M19.6,91.23a50.91,50.91,0,0,0,7.07,4.65l2.55-4.7A45.32,45.32,0,0,1,22.9,87Z"/><path class="cls-1" d="M42.56,56.27c0-3.09-2.65-5.12-5.74-5.12-3.4,0-5.87,2.25-5.87,5.12s2.38,5.12,5.87,5.12c3.22,0,5.74-2.12,5.74-5.12M23.86,51.55c0-9,4.54-16.45,14.29-16.45a14.75,14.75,0,0,1,8.38,2.38,1.84,1.84,0,0,1,.22,3l-.79.88a2.23,2.23,0,0,1-3,.4,8.8,8.8,0,0,0-4.41-1.06c-4.9,0-8.07,3.4-8.07,9.22a10,10,0,0,1,8-3.88c5.82,0,10.81,3.88,10.81,10.24,0,6.18-4.77,10.68-12,10.68-8.51,0-13.41-6.18-13.41-15.4"/><path class="cls-1" d="M52.65,64.35V37.7a1.94,1.94,0,0,1,2.16-2.12h2.74a1.91,1.91,0,0,1,2.12,2.12V48.86H71.22V37.7a1.91,1.91,0,0,1,2.12-2.12h2.73a1.91,1.91,0,0,1,2.12,2.12V64.35a1.91,1.91,0,0,1-2.12,2.12H73.34a1.91,1.91,0,0,1-2.12-2.12V54.55H59.66v9.79a1.91,1.91,0,0,1-2.12,2.12H54.81a1.94,1.94,0,0,1-2.16-2.12"/><path class="cls-1" d="M12.94,25.8l-4.46-3a51,51,0,0,0-4.07,7.41l4.88,2.18a46,46,0,0,1,3.65-6.63"/><path class="cls-1" d="M5.35,51c0-1.33.06-2.67.17-4L.19,46.57C.07,48,0,49.54,0,51s.05,2.67.15,4l5.33-.41c-.09-1.18-.14-2.37-.14-3.58"/><path class="cls-1" d="M7.89,35.95,2.84,34.19A51.12,51.12,0,0,0,.73,42.37l5.27.9a45.5,45.5,0,0,1,1.89-7.33"/><path class="cls-1" d="M20.33,17.2l-3.6-4A51.52,51.52,0,0,0,11,19.42l4.19,3.32a46.65,46.65,0,0,1,5.17-5.54"/><path class="cls-1" d="M30.9,4.12,33,9a45.08,45.08,0,0,1,7.17-2.39l-1.26-5.2a50.74,50.74,0,0,0-8,2.68"/><path class="cls-1" d="M20,10.53l3.26,4.24a45.72,45.72,0,0,1,6.36-4.09L27.09,6A50.93,50.93,0,0,0,20,10.53"/><path class="cls-1" d="M51,0h0a51.48,51.48,0,0,0-8,.62l.83,5.28A45.68,45.68,0,1,1,51,96.7a46.43,46.43,0,0,1-7.55-.62l-.87,5.28A51.06,51.06,0,0,0,102,51,51.08,51.08,0,0,0,51,0"/></g></g></svg>