<?xml version="1.0" encoding="UTF-8" standalone="no"?>
<!-- Generator: Adobe Illustrator 19.0.0, SVG Export Plug-In . SVG Version: 6.00 Build 0)  -->

<svg
   xmlns:dc="http://purl.org/dc/elements/1.1/"
   xmlns:cc="http://creativecommons.org/ns#"
   xmlns:rdf="http://www.w3.org/1999/02/22-rdf-syntax-ns#"
   xmlns:svg="http://www.w3.org/2000/svg"
   xmlns="http://www.w3.org/2000/svg"
   xmlns:sodipodi="http://sodipodi.sourceforge.net/DTD/sodipodi-0.dtd"
   xmlns:inkscape="http://www.inkscape.org/namespaces/inkscape"
   version="1.1"
   id="Layer_1"
   x="0px"
   y="0px"
   viewBox="0 0 512 512"
   style="enable-background:new 0 0 512 512;"
   xml:space="preserve"
   inkscape:version="0.91 r13725"
   sodipodi:docname="icon-repelente.svg"><metadata
     id="metadata57"><rdf:RDF><cc:Work
         rdf:about=""><dc:format>image/svg+xml</dc:format><dc:type
           rdf:resource="http://purl.org/dc/dcmitype/StillImage" /></cc:Work></rdf:RDF></metadata><defs
     id="defs55" /><sodipodi:namedview
     pagecolor="#ffffff"
     bordercolor="#666666"
     borderopacity="1"
     objecttolerance="10"
     gridtolerance="10"
     guidetolerance="10"
     inkscape:pageopacity="0"
     inkscape:pageshadow="2"
     inkscape:window-width="914"
     inkscape:window-height="480"
     id="namedview53"
     showgrid="false"
     inkscape:zoom="0.4609375"
     inkscape:cx="425.22034"
     inkscape:cy="256"
     inkscape:window-x="660"
     inkscape:window-y="327"
     inkscape:window-maximized="0"
     inkscape:current-layer="Layer_1" /><path
     style="fill:#c4d600;fill-opacity:1"
     d="M313.364,13.79h-60.345c-13.561,0-24.555,10.993-24.555,24.555l0,0V64.27v69.613h55.759V64.271  h29.141c13.94,0,25.24-11.301,25.24-25.24l0,0C338.606,25.091,327.305,13.79,313.364,13.79z"
     id="path3" /><path
     inkscape:connector-curvature="0"
     id="path7"
     d="m 284.225,147.673 -55.759,0 c -7.616,0 -13.79,-6.174 -13.79,-13.79 l 0,-95.538 C 214.676,17.202 231.876,0 253.021,0 l 60.345,0 c 21.521,0 39.03,17.509 39.03,39.03 0,21.521 -17.508,39.03 -39.03,39.03 l -15.351,0 0,55.823 c 0,7.616 -6.175,13.79 -13.79,13.79 z m -41.969,-27.58 28.179,0 0,-55.823 c 0,-7.616 6.175,-13.79 13.79,-13.79 l 29.141,0 c 6.313,0 11.45,-5.137 11.45,-11.45 0,-6.313 -5.137,-11.45 -11.451,-11.45 l -60.345,0 c -5.935,0 -10.764,4.829 -10.764,10.764 l 0,81.749 0,0 z"
     style="fill:#00524c;fill-opacity:1;stroke:none;stroke-opacity:1" /><path
     inkscape:connector-curvature="0"
     id="path9"
     d="m 358.255,512 -204.509,0 c -27.515,0 -49.901,-22.384 -49.901,-49.899 l 0,-166.45 c 0,-83.898 68.256,-152.154 152.154,-152.154 7.615,0 13.79,6.174 13.79,13.79 0,7.616 -6.175,13.79 -13.79,13.79 -68.691,0 -124.574,55.884 -124.574,124.574 l 0,166.45 c 0,12.306 10.013,22.319 22.321,22.319 l 204.509,0 c 12.306,0 22.319,-10.013 22.319,-22.319 l 0,-166.45 c 0,-14.427 -2.441,-28.556 -7.254,-41.999 -2.566,-7.171 1.165,-15.064 8.335,-17.632 7.171,-2.566 15.066,1.162 17.632,8.333 5.884,16.434 8.867,33.692 8.867,51.296 l 0,166.45 c 0,27.517 -22.385,49.901 -49.899,49.901 z"
     style="fill:#00524c;fill-opacity:1" /><path
     style="fill:#c4d600;fill-opacity:1"
     d="M256.001,157.288L256.001,157.288c30.357,0,58.426,9.784,81.238,26.36v-71.352H174.762v71.352  C197.575,167.072,225.643,157.288,256.001,157.288z"
     id="path11" /><path
     inkscape:connector-curvature="0"
     id="path15"
     d="m 337.24,197.437 c -2.86,0 -5.706,-0.889 -8.107,-2.634 C 307.77,179.281 282.48,171.076 256,171.076 c -26.481,0 -51.77,8.205 -73.133,23.726 -4.195,3.05 -9.747,3.486 -14.365,1.131 -4.621,-2.354 -7.529,-7.102 -7.529,-12.287 l 0,-71.35 c 0,-7.616 6.174,-13.79 13.79,-13.79 l 162.477,0 c 7.615,0 13.79,6.174 13.79,13.79 l 0,71.351 c 0,5.185 -2.908,9.933 -7.529,12.287 -1.977,1.007 -4.123,1.503 -6.261,1.503 z m -81.239,-53.939 c 23.7,0 46.62,5.382 67.448,15.722 l 0,-33.133 -134.897,0 0,33.132 c 20.829,-10.341 43.749,-15.721 67.449,-15.721 z"
     style="fill:#00524c;fill-opacity:1" /><path
     inkscape:connector-curvature="0"
     id="path17"
     d="m 256.001,426.498 c -22.896,0 -44.419,-8.917 -60.609,-25.105 -33.419,-33.42 -33.419,-87.797 0,-121.217 16.189,-16.189 37.714,-25.105 60.609,-25.105 22.895,0 44.419,8.915 60.609,25.105 33.419,33.42 33.419,87.798 0,121.218 -16.19,16.187 -37.715,25.104 -60.609,25.104 z m 0,-143.848 c -15.528,0 -30.127,6.047 -41.107,17.027 -22.667,22.667 -22.667,59.547 0,82.213 10.98,10.98 25.578,17.028 41.107,17.028 15.529,0 30.127,-6.047 41.107,-17.028 22.667,-22.667 22.667,-59.547 0,-82.213 -10.98,-10.98 -25.578,-17.027 -41.107,-17.027 z"
     style="fill:#c4d600;fill-opacity:1" /><path
     inkscape:connector-curvature="0"
     id="path19"
     d="m 205.143,405.431 c -3.529,0 -7.058,-1.346 -9.751,-4.039 -5.385,-5.385 -5.386,-14.117 0,-19.502 l 49.368,-49.37 c 5.385,-5.385 14.118,-5.386 19.502,0 5.385,5.385 5.385,14.117 0,19.502 l -49.368,49.37 c -2.692,2.693 -6.222,4.039 -9.751,4.039 z"
     style="fill:#00524c;fill-opacity:1" /><path
     inkscape:connector-curvature="0"
     id="path21"
     d="m 288.817,321.757 c -3.53,0 -7.058,-1.346 -9.751,-4.039 -5.385,-5.385 -5.385,-14.117 0,-19.503 l 18.041,-18.042 c 5.386,-5.385 14.115,-5.385 19.503,0 5.385,5.385 5.385,14.117 0,19.503 l -18.042,18.042 c -2.693,2.693 -6.222,4.039 -9.751,4.039 z"
     style="fill:#00524c;fill-opacity:1" /><g
     id="g23" /><g
     id="g25" /><g
     id="g27" /><g
     id="g29" /><g
     id="g31" /><g
     id="g33" /><g
     id="g35" /><g
     id="g37" /><g
     id="g39" /><g
     id="g41" /><g
     id="g43" /><g
     id="g45" /><g
     id="g47" /><g
     id="g49" /><g
     id="g51" /></svg>