<?xml version="1.0" encoding="UTF-8" standalone="no"?>
<!-- Generator: Adobe Illustrator 19.0.0, SVG Export Plug-In . SVG Version: 6.00 Build 0)  -->

<svg
   xmlns:dc="http://purl.org/dc/elements/1.1/"
   xmlns:cc="http://creativecommons.org/ns#"
   xmlns:rdf="http://www.w3.org/1999/02/22-rdf-syntax-ns#"
   xmlns:svg="http://www.w3.org/2000/svg"
   xmlns="http://www.w3.org/2000/svg"
   xmlns:sodipodi="http://sodipodi.sourceforge.net/DTD/sodipodi-0.dtd"
   xmlns:inkscape="http://www.inkscape.org/namespaces/inkscape"
   version="1.1"
   id="Layer_1"
   x="0px"
   y="0px"
   viewBox="0 0 512 512"
   style="enable-background:new 0 0 512 512;"
   xml:space="preserve"
   inkscape:version="0.91 r13725"
   sodipodi:docname="icon-hidratante.svg"><metadata
     id="metadata41"><rdf:RDF><cc:Work
         rdf:about=""><dc:format>image/svg+xml</dc:format><dc:type
           rdf:resource="http://purl.org/dc/dcmitype/StillImage" /></cc:Work></rdf:RDF></metadata><defs
     id="defs39" /><sodipodi:namedview
     pagecolor="#ffffff"
     bordercolor="#666666"
     borderopacity="1"
     objecttolerance="10"
     gridtolerance="10"
     guidetolerance="10"
     inkscape:pageopacity="0"
     inkscape:pageshadow="2"
     inkscape:window-width="914"
     inkscape:window-height="480"
     id="namedview37"
     showgrid="false"
     inkscape:zoom="0.4609375"
     inkscape:cx="425.22034"
     inkscape:cy="257.08475"
     inkscape:window-x="0"
     inkscape:window-y="31"
     inkscape:window-maximized="0"
     inkscape:current-layer="Layer_1" /><path
     style="fill:#00524c;fill-opacity:1"
     d="M448.959,224.624L331.352,124.539c-19.685-16.752-44.688-25.951-70.536-25.951H150.93  c-14.456,0-28.371-5.492-38.93-15.366L70.347,44.276L8.195,147.548l43.145,41.527c10.525,10.131,19.561,21.703,26.835,34.372  l10.547,18.367c13.156,22.91,37.559,37.037,63.978,37.037h137.754c13.001,0,23.54-10.539,23.54-23.54l0,0  c0-13.001-10.539-23.54-23.54-23.54h-55.799H207.48c-13.001,0-23.54-10.539-23.54-23.54l0,0c0-13.001,10.539-23.54,23.54-23.54  h86.436c18.355,0,36.13,6.431,50.235,18.176l73.105,60.867c10.559,8.792,26.187,7.477,35.136-2.871  C461.621,250.189,459.801,233.651,448.959,224.624z"
     id="path3" /><path
     style="fill:#00524c;fill-opacity:1"
     d="M17.209,467.724L0,442.976c60.046-41.755,137.406-76.223,223.718-99.677  c90.088-24.48,187.08-36.892,288.282-36.892v30.143c-98.533,0-192.866,12.057-280.378,35.838  C148.599,394.947,74.457,427.915,17.209,467.724z"
     id="path5" /><g
     id="g7" /><g
     id="g9" /><g
     id="g11" /><g
     id="g13" /><g
     id="g15" /><g
     id="g17" /><g
     id="g19" /><g
     id="g21" /><g
     id="g23" /><g
     id="g25" /><g
     id="g27" /><g
     id="g29" /><g
     id="g31" /><g
     id="g33" /><g
     id="g35" /></svg>