<svg xmlns="http://www.w3.org/2000/svg" viewBox="0 0 90.88 39.92"><defs><style>.cls-1{fill:#c3d217;}</style></defs><title>logo-light-green</title><g id="Camada_2" data-name="Camada 2"><g id="Camada_1-2" data-name="Camada 1"><path class="cls-1" d="M18.23,11.44a8.95,8.95,0,0,0-5-4.89,9.91,9.91,0,0,0-3.7-.69,9.91,9.91,0,0,0-3.7.69,9.39,9.39,0,0,0-3,1.92,8.72,8.72,0,0,0-2,3A9.64,9.64,0,0,0,0,15.23V37.4a2.36,2.36,0,1,0,4.72,0V15.23A4.51,4.51,0,0,1,6,11.8a4.87,4.87,0,0,1,3.49-1.21A4.79,4.79,0,0,1,13,11.8a4.55,4.55,0,0,1,1.25,3.43V37.38a2.38,2.38,0,1,0,4.77,0V15.23a9.42,9.42,0,0,0-.75-3.78"/><path class="cls-1" d="M26.46,15a4.69,4.69,0,0,1,1.26-3.41,4.58,4.58,0,0,1,3.45-1.31,5,5,0,0,1,3.49,1.24A4.49,4.49,0,0,1,36,15v5.64H26.46ZM40.06,11.4a9.4,9.4,0,0,0-2.08-3,9.91,9.91,0,0,0-3.07-2,9.81,9.81,0,0,0-7.41,0,9.68,9.68,0,0,0-3,2,9,9,0,0,0-2,3,9.44,9.44,0,0,0-.74,3.75V37.39a2.38,2.38,0,1,0,4.76,0v-12H36v12a2.4,2.4,0,0,0,4.8,0V15.06a9,9,0,0,0-.76-3.66"/><path class="cls-1" d="M42.2,8.62h0A2.4,2.4,0,0,0,44.6,11h4.8V37.37a2.4,2.4,0,1,0,4.8,0V11H59a2.4,2.4,0,0,0,0-4.8H44.6a2.4,2.4,0,0,0-2.4,2.4"/><path class="cls-1" d="M76.27,5.48q.45.18.87.39L79,4A2.35,2.35,0,0,0,75.59.72L71.66,4.78c.23,0,.45,0,.69,0a10.53,10.53,0,0,1,3.93.73"/><path class="cls-1" d="M81.57,30v0h0A2.3,2.3,0,0,0,77,30h0v0h0v.77a4.34,4.34,0,0,1-1.24,3.3,4.68,4.68,0,0,1-3.37,1.18,4.74,4.74,0,0,1-3.41-1.18,4.34,4.34,0,0,1-1.24-3.31V25.43h5.55a2.33,2.33,0,0,0,0-4.65H67.69V15.35A4.39,4.39,0,0,1,68.94,12a4.74,4.74,0,0,1,3.41-1.18A4.69,4.69,0,0,1,75.71,12,4.4,4.4,0,0,1,77,15.35v.77h0v.17h0a2.29,2.29,0,0,0,4.58,0h0v-.16h0v-.76a9.41,9.41,0,0,0-.71-3.69,8.67,8.67,0,0,0-2-2.9A8.93,8.93,0,0,0,76,6.89a10,10,0,0,0-7.22,0,9.13,9.13,0,0,0-3,1.88,8.5,8.5,0,0,0-2,2.9,9.41,9.41,0,0,0-.71,3.69V30.78a9.26,9.26,0,0,0,.71,3.67,8.75,8.75,0,0,0,2,2.9,9,9,0,0,0,3,1.9,10,10,0,0,0,7.22,0,8.76,8.76,0,0,0,2.94-1.9,8.92,8.92,0,0,0,2-2.9,9.26,9.26,0,0,0,.71-3.67V30h0"/><path class="cls-1" d="M90.51,32.62v-24a2.36,2.36,0,0,0-4.72,0v24A4.91,4.91,0,0,1,88.08,32a5.1,5.1,0,0,1,2.43.61"/><path class="cls-1" d="M85.45,37.15a2.65,2.65,0,0,1,.77-1.92,2.54,2.54,0,0,1,1.9-.8,2.69,2.69,0,0,1,1.94.8,2.58,2.58,0,0,1,.82,1.92,2.5,2.5,0,0,1-.82,1.9,2.73,2.73,0,0,1-1.94.77,2.64,2.64,0,0,1-2.67-2.67"/></g></g></svg>