<?xml version="1.0" encoding="utf-8"?>
<!-- Generator: Adobe Illustrator 19.0.0, SVG Export Plug-In . SVG Version: 6.00 Build 0)  -->
<svg version="1.1" id="Layer_1" xmlns="http://www.w3.org/2000/svg" xmlns:xlink="http://www.w3.org/1999/xlink" x="0px" y="0px"
	 viewBox="0 0 1953 359.4" style="enable-background:new 0 0 1953 359.4;" xml:space="preserve">
<style type="text/css">
	.st0{fill:#EC1D4C;}
	.st1{fill:#41BFB4;}
</style>
<g>
	<path class="st0" d="M89.4,48.5c61.8,19.5,1.8,155.9,1.8,155.9s4.4-8.5,29.6-49.7s60.8-63.6,85.8-66.1
		c25.1-2.6,63.8,11.3,46.7,91.5c-17.1,80.2,12.3,86.9,34.9,92.6c22.6,5.7,49.2-7.1,49.2-7.1c11.6-23.7,21.9-57.5,21.9-85.7
		C359.4,80.5,278.9,0,179.7,0C132.1,0,88.9,18.5,56.8,48.7C67.1,45.4,78,44.9,89.4,48.5z"/>
	<path class="st0" d="M332.7,273.4c-54.3,27.7-96,0.4-106.1-31.6c-10.1-32,26.2-126.5-12.1-126.5c-62,0-145.5,154.8-145.5,154.8
		l-8-3.2c0,0,23.6-64.8,33.7-132.1c4.1-32.9,4-56.2-13.2-64.6C51.3,55.4,26.4,85.9,26.4,85.9l-0.2,0.3C9.6,113.5,0,145.5,0,179.7
		C0,279,80.5,359.4,179.7,359.4c65,0,122-34.6,153.6-86.3C333.1,273.2,332.9,273.3,332.7,273.4z"/>
</g>
<g>
	<path class="st1" d="M504.5,109.9c-24.5,0-48.7,10.5-62.7,27.1v-27.3h-24v200h24V191.1c0-32.7,28.8-58.7,62-58.7
		c34.2,0,62,27.8,62,61.9v115.5h24V194.2C589.7,147.8,551,109.9,504.5,109.9z"/>
	<path class="st1" d="M720.5,115.1c-53.7,0-97.3,43.7-97.3,97.3c0,53.7,43.7,97.3,97.3,97.3c34.4,0,64.7-17.9,82-45l-23.2-6
		c-13.7,17.4-35,28.5-58.8,28.5c-37.2,0-68.2-27-73.9-62.7l0,0.1h170.6c0.5-4,0.7-8.1,0.7-12.1C817.8,159,774.1,115.1,720.5,115.1z
		 M646.3,201.8c5.2-34,36.4-64.3,74.1-64.3c37.7,0,69,30.3,74.1,64.3H646.3z"/>
	<path class="st1" d="M1342.7,309.8V192.4c0-33.5,27.7-60.4,61.4-60.4c1.8,0,0.6,0.1,4.6,0.2v-22.5c-4-0.1-2.8-0.2-4.6-0.2
		c-24.5,0-47.4,10.5-61.4,27.2v-27h-24v200H1342.7z"/>
	<path class="st1" d="M1673.2,109.9c-31.4,0-58.7,17.3-73.3,42.8c-14.5-25.6-40.6-42.8-72.1-42.8c-24.5,0-46.5,10.5-60.5,27.1v-27.3
		h-24v200h24V191.1c0-32.7,27.5-58.7,60.6-58.7c34.2,0,59.3,27.8,59.4,62l0,115.3h23V194.3c0-34.1,28-61.8,62.1-61.8
		c34.2,0,62.5,27.8,62.6,62l0.2,115.3h22V194.1C1757.4,147.6,1719.7,109.9,1673.2,109.9z"/>
	<path class="st1" d="M897.8,228.4v-95.7H962v-24h-64.2V58.4h-22v50.3H852v24h23.8v95.7c0,26.5,9.8,48.1,28.3,62.5
		c15.9,12.3,37.5,18.8,62.3,18.8v-22C950.3,287.8,897.8,283.5,897.8,228.4z"/>
	<path class="st1" d="M1109,57.4v-22c-24.9,0-46.4,6.5-62.3,18.8c-17,13.2-26.7,32.6-28.1,56.2H995v24h23.3v175.3h22V134.5h64.7v-24
		h-64.4C1044.4,61.4,1093.5,57.4,1109,57.4z"/>
	<path class="st1" d="M1867.4,110c-19.1,0-37.4,6.4-51.5,17.2l6,24.3c11.3-11.7,27-19,44.6-19c29.6,0,54.4,20.9,60.6,48.7
		c-3.5,3.5-9,5-23.4,5c-10.2-0.5-22.5-0.9-36.9-0.9c-22.4,0-41.6,6.4-55.2,18.6c-12.7,11.3-19.7,26.6-19.7,43
		c0,16.4,6.9,31.6,19.5,42.9c13.5,12.1,33.1,18.5,55.3,18.5c30.4,0,47.4-8.5,62.4-18.2v19.6h24V194.3
		C1953,147.8,1913.9,110,1867.4,110z M1929,249.6c0,3.2-2.9,10.3-8.6,17.2c-10.3,12.5-29.3,19.1-54.2,19.1
		c-35.6,0-51.9-20.2-51.9-39c0-10,4.2-19.3,12.1-26.3c9.5-8.4,23.9-12.9,40.8-12.9c29.8,0,46.9,1.5,61.9,2.8V249.6z"/>
	<path class="st1" d="M1200.6,110c-19.1,0-37.4,6.4-51.5,17.2l6,24.3c11.3-11.7,27-19,44.6-19c29.6,0,54.4,20.9,60.6,48.7
		c-3.5,3.5-9,5-23.4,5c-10.2-0.5-22.5-0.9-36.9-0.9c-22.4,0-41.6,6.4-55.2,18.6c-12.7,11.3-19.7,26.6-19.7,43
		c0,16.4,6.9,31.6,19.5,42.9c13.5,12.1,33.1,18.5,55.3,18.5c30.4,0,47.4-8.5,62.4-18.2v19.6h24V194.3
		C1286.2,147.8,1247.1,110,1200.6,110z M1262.2,249.6c0,3.2-2.9,10.3-8.6,17.2c-10.3,12.5-29.3,19.1-54.2,19.1
		c-35.6,0-51.9-20.2-51.9-39c0-10,4.2-19.3,12.1-26.3c9.5-8.4,23.9-12.9,40.8-12.9c29.8,0,46.9,1.5,61.9,2.8V249.6z"/>
</g>
</svg>
