<svg xmlns="http://www.w3.org/2000/svg" viewBox="0 0 90.71 117.99"><defs><style>.cls-1{fill:#00524b;}</style></defs><title>man-ico</title><g id="Camada_2" data-name="Camada 2"><g id="Camada_1-2" data-name="Camada 1"><path class="cls-1" d="M24.08,20.07a22.92,22.92,0,0,1,2.67-11L27.82,7A2.39,2.39,0,0,1,30,5.62H60.73a2.57,2.57,0,0,1,2.41,1.6L64.21,9.1a26.48,26.48,0,0,1,2.68,11v1.6H24.08ZM8,27H82.94a2.53,2.53,0,0,0,2.68-2.68,2.53,2.53,0,0,0-2.68-2.68H72.24v-1.6A29.81,29.81,0,0,0,69,6.69L68,4.55A8.06,8.06,0,0,0,60.73,0H30a7.88,7.88,0,0,0-7.22,4.55L21.67,6.69a29,29,0,0,0-3.21,13.38v1.6H8a2.53,2.53,0,0,0-2.68,2.68A2.53,2.53,0,0,0,8,27"/><path class="cls-1" d="M25.42,45.75,24.61,35a2.42,2.42,0,0,0-2.94-2.41,2.42,2.42,0,0,0-2.41,2.94l.8,10.7a25.47,25.47,0,0,0,50.83,0l.8-10.7a2.91,2.91,0,0,0-2.41-2.94A3.13,3.13,0,0,0,66.35,35l-.8,10.7a20.11,20.11,0,0,1-40.13,0"/><path class="cls-1" d="M15.52,98.46a65.77,65.77,0,0,1,.54,7v7.22H8A2.53,2.53,0,0,1,5.35,110V92a7.78,7.78,0,0,1,6.42-7.76L13.64,84ZM80.26,78.93,62.07,75.18H59.13a9.5,9.5,0,0,0-7,3.21L45.48,87l-6.69-8.56a8.63,8.63,0,0,0-7-3.21H28.89L10.7,78.93A13.46,13.46,0,0,0,0,92V110a7.88,7.88,0,0,0,8,8H72.24a2.53,2.53,0,0,0,2.67-2.68v-9.63a56.6,56.6,0,0,1,.53-7l.8-7a2.69,2.69,0,0,0-5.35-.54l-.8,7a75.77,75.77,0,0,0-.53,7.76v6.69H21.4v-7a75.44,75.44,0,0,0-.54-7.76L19,82.67l10.7-2.14h2.14a3.29,3.29,0,0,1,2.68,1.34l8.83,11a2.78,2.78,0,0,0,4.28,0l8.83-11a3.71,3.71,0,0,1,2.67-1.34h2.41L59.39,96.85a2.84,2.84,0,0,1-2.67,2.41H34a2.84,2.84,0,0,1-2.67-2.41l-1.07-8.56a3.13,3.13,0,0,0-2.94-2.41,3.14,3.14,0,0,0-2.41,2.94L26,97.39a8.08,8.08,0,0,0,8,7H56.72a8.08,8.08,0,0,0,8-7l1.87-16.05,12.31,2.41a8,8,0,0,1,6.42,7.76V110a2.53,2.53,0,0,1-2.67,2.68,2.68,2.68,0,1,0,0,5.35,7.88,7.88,0,0,0,8-8V92A12.76,12.76,0,0,0,80.26,78.93"/></g></g></svg>